# xmcd
#
# Track frame offsets:
#	151
#	21483
#	37780
#	55960
#	72466
#	100629
#	115433
#	138510
#	154882
#	174353
#	198790
#	216875
#	240166
#	261462
#	281383
#	302870
#
# Disc length: 4263 seconds
#
# Revision: 0
# Processed by: cddbd v1.5.2PL0 Copyright (c) Steve Scherf et al.
# Submitted via: dBpowerAMP V4.0
#
DISCID=e210a510
DTITLE=The best of the soul show - The best of the soul show CD2
DYEAR=1900
DGENRE=
TTITLE0=George Clinton - Atomic dog
TTITLE1=Bill Withers and Ralph Donald - In the name of love
TTITLE2=Pointer Sisters - Automatic
TTITLE3=Dayton - The sound of music
TTITLE4=Hugh Maschela - Don't go love it baby
TTITLE5=9.9 - All of me for all of you
TTITLE6=Ashford and Simpson - Solid
TTITLE7=Jaki Graham - Set me free
TTITLE8=Cameo - Word up
TTITLE9=No shooz - I can't wait
TTITLE10=Vesta Williams - Once bitten twice shy
TTITLE11=Midnight star - Midas touch
TTITLE12=Billy Ocean - Night (feel like getting down)
TTITLE13=George Benson - Kisses in the moonlight
TTITLE14=Paul young - I'm gonna tear your playhouse down
TTITLE15=Gloria Estefan - Bad boy
EXTD=
EXTT0=
EXTT1=
EXTT2=
EXTT3=
EXTT4=
EXTT5=
EXTT6=
EXTT7=
EXTT8=
EXTT9=
EXTT10=
EXTT11=
EXTT12=
EXTT13=
EXTT14=
EXTT15=
PLAYORDER=
